<?xml version="1.0" encoding="iso-8859-1"?>
<!-- Generator: Adobe Illustrator 16.0.0, SVG Export Plug-In . SVG Version: 6.00 Build 0)  -->
<!DOCTYPE svg PUBLIC "-//W3C//DTD SVG 1.1//EN" "http://www.w3.org/Graphics/SVG/1.1/DTD/svg11.dtd">
<svg version="1.1" id="Capa_1" xmlns="http://www.w3.org/2000/svg" xmlns:xlink="http://www.w3.org/1999/xlink" x="0px" y="0px"
	 width="35.881px" height="35.881px" viewBox="0 0 35.881 35.881" style="enable-background:new 0 0 35.881 35.881;"
	 xml:space="preserve">
<g>
	<g>
		<path d="M22.52,1.449c-1.294-0.374-2.683-0.451-4.021-0.507c-0.072-0.01-0.154-0.016-0.258-0.012c-0.03-0.001-0.06,0-0.092,0.003
			c-0.051,0.004-0.54,0.031-1.09,0.083C8.68,1.802,1.965,7.262,0.225,15.773C-1.229,22.883,4.503,35.569,13.2,34.882
			c1.571-0.124,2.027-2.734,1.091-3.752c-1.407-1.531-4.125-0.51-5.291-2.739c-0.021-0.038-0.043-0.08-0.068-0.125
			c-0.039-0.067,0.275,0.169,0.767,0.421c1.235,0.633,2.733,0.728,3.878-0.234c3.851-3.234-1.883-3.598-3.869-5.598
			c-2.461-2.479-1.643-6.627-0.616-9.474c0.23-0.639,0.115-4.525,2.063-3.68c1.062,0.462,1.484,0.501,2.635,0.693
			c1.735,0.292,11.681-1.452,12.467,0.306c0.864,1.93,1.45,6.442,1.348,8.431c-0.201,3.857-2.896,4.964-5.907,6.339
			c-0.444,0.203-0.98,0.76-0.921,1.275c0.218,1.899-0.503,5.498,0.317,7.128c0.933,1.85,3.032,0.93,4.592,0.115
			c4.354-2.273,7.34-5.614,9.132-10.194C38.597,14.136,31.783,4.128,22.52,1.449z M6.571,29.213c-0.124,0.115-0.436-0.021-0.69-0.31
			s-0.329-0.642-0.176-0.781c0.153-0.142,0.451,0.006,0.675,0.319C6.604,28.757,6.696,29.098,6.571,29.213z M10.584,32.207
			c0.213-0.214,0.765-0.146,1.188,0.209c0.903,0.758,1.349,1.48-0.333,0.792c-0.215-0.088-0.424-0.186-0.629-0.287
			C10.468,32.749,10.37,32.42,10.584,32.207z M9.177,31.011c0.32,0.147,0.631,0.241,0.679,0.255
			c0.047,0.014-0.079,0.177-0.282,0.363c-0.204,0.186-0.739,0.083-1.17-0.263c-0.384-0.309-0.754-0.636-1.11-0.976
			c-0.399-0.381-0.613-0.803-0.499-0.919c0.114-0.116,0.482,0.147,0.875,0.535c0.314,0.309,0.63,0.558,0.943,0.707
			C8.796,30.824,8.985,30.923,9.177,31.011z M10.987,25.691c0.188,0.068,0.177,0.063-0.031,0.017
			c-0.208-0.046-0.363-0.086-0.342-0.108C10.636,25.579,10.801,25.623,10.987,25.691z M9.043,25.058
			c0.141-0.129,0.518-0.044,0.864,0.151c0.348,0.194,0.625,0.338,0.597,0.364c-0.028,0.025-0.815-0.132-0.852,0.42
			c-0.018,0.264,0.163,0.423-0.618-0.483c-0.038-0.044-0.078-0.08-0.119-0.114C8.845,25.338,8.902,25.187,9.043,25.058z
			 M31.168,27.525c-1.311,2.215-3.351,3.873-5.495,5.222c-1.086,0.683-1.758,0.761-2.167,0.493
			c-0.462-0.304-0.183-1.165,0.201-1.562c0.268-0.277,0.542-0.56,0.824-0.851c0.384-0.397,0.695-1.029,0.697-1.413
			c0.001-0.227,0.001-0.457,0.001-0.694c0-0.117-0.007-0.227-0.016-0.334c-0.015-0.184-0.349-0.015-0.737,0.377
			c-0.275,0.278-0.55,0.554-0.822,0.829c-0.39,0.392-0.678,0.389-0.646-0.008c0.021-0.275,0.038-0.522,0.039-0.721
			c0-0.027,0.001-0.052,0.002-0.075c0.001-0.041,0.315-0.393,0.704-0.784c0.157-0.159,0.315-0.317,0.471-0.477
			c0.39-0.393,0.691-0.763,0.682-0.827c-0.011-0.065-0.324,0.208-0.704,0.607c-0.153,0.161-0.306,0.322-0.458,0.482
			c-0.381,0.399-0.702,0.274-0.625-0.272c0.156-1.108,0.656-1.485,2.162-2.297c1.585-0.854,3.103-2.075,3.673-3.874
			c0.096-0.301,0.176-0.594,0.244-0.881c0.117-0.491,0.484-1.222,0.861-1.626c0.35-0.374,0.697-0.747,1.045-1.119
			c0.376-0.404,0.675-1.07,0.615-1.483c-0.058-0.412-0.463-0.424-0.854-0.033c-0.213,0.211-0.426,0.423-0.64,0.635
			c-0.392,0.389-0.72,0.255-0.79-0.292c-0.136-1.06-0.427-2.132-0.852-3.312c-0.044-0.123-0.08-0.254-0.11-0.391
			c-0.049-0.219,0.263-0.697,0.676-1.063c0.167-0.147,0.334-0.296,0.501-0.444c0.413-0.367,0.747-0.707,0.743-0.763
			c-0.004-0.057-0.327,0.209-0.726,0.594c-0.185,0.179-0.369,0.357-0.554,0.537c-0.396,0.384-0.767,0.339-0.808-0.103
			c-0.04-0.441,0.244-1.108,0.645-1.49c0.081-0.077,0.162-0.154,0.243-0.231c0.398-0.381,0.688-0.733,0.641-0.782
			s-0.408,0.226-0.804,0.611c-0.042,0.042-0.085,0.083-0.127,0.124c-0.395,0.386-0.403,0.378-0.014-0.013
			c0.041-0.042,0.083-0.083,0.124-0.124c0.393-0.39,0.37-0.412-0.03-0.033c-0.03,0.027-0.061,0.057-0.091,0.085
			c-0.399,0.38-0.764,0.239-0.981-0.268c-0.25-0.581-0.681-1.032-1.466-1.211c-2.034-0.46-3.892,1.027-5.934,0.995
			c-2.132-0.034-4.227-0.195-6.299-0.515c-0.546-0.084-0.963-0.188-0.934-0.216c0.029-0.029-0.001-0.042-0.064-0.018
			C13.15,8.542,12.747,8.5,12.315,8.418c-0.261-0.05-0.521-0.103-0.781-0.161c-4.242-0.96-3.878,3.964-4.789,6.487
			c-1.146,3.176-0.644,7.022,1.659,9.333c0.39,0.391,0.583,0.651,0.39,0.729c-0.133,0.053-0.229,0.138-0.202,0.277
			c0.002,0.009,0.006,0.018,0.01,0.025c0.006,0.016-0.354-0.229-0.867-0.401c-0.299-0.101-0.614-0.179-0.941-0.272
			c-0.803-0.23-1.573,0.224-2.13,0.729c-0.167,0.151-0.266,0.362-0.116,0.561c0.116,0.154,0.245,0.341,0.385,0.55
			c0.207,0.31,0.23,0.691,0.06,0.853c-0.172,0.16-0.576-0.072-0.87-0.539c-0.29-0.46-0.552-0.928-0.784-1.402
			c-0.243-0.496-0.097-1.232,0.288-1.629c0.123-0.126,0.245-0.253,0.368-0.378c0.385-0.396,0.625-0.983,0.551-1.312
			c-0.074-0.33-0.441-0.282-0.833,0.106c-0.159,0.159-0.318,0.316-0.477,0.475c-0.392,0.389-0.847,0.277-0.975-0.26
			c-0.008-0.033-0.016-0.065-0.024-0.099c-0.126-0.538,0.122-1.296,0.514-1.686c0.257-0.256,0.516-0.513,0.774-0.769
			c0.104-0.114,0.209-0.229,0.313-0.343c0.173-0.189-0.012-0.035-0.41,0.348c-0.235,0.227-0.465,0.447-0.684,0.658
			c-0.398,0.383-0.764,0.422-0.8,0.084s0.264-0.927,0.656-1.315c0.28-0.275,0.56-0.552,0.839-0.827
			c0.394-0.389,0.723-1.064,0.759-1.509c0.035-0.443-0.229-0.479-0.613-0.083c-0.344,0.355-0.689,0.711-1.033,1.066
			c-0.384,0.396-0.692,0.28-0.651-0.257s0.418-1.291,0.803-1.688c0.451-0.463,0.897-0.922,1.335-1.373
			c0.385-0.396,0.812-1.148,0.987-1.673c0.184-0.551,0.395-1.089,0.632-1.613c0.228-0.503,0.121-0.582-0.272-0.193
			c-0.659,0.648-1.322,1.303-1.987,1.958c-0.393,0.388-0.573,0.274-0.368-0.237c1.731-4.331,5.243-7.985,9.773-9.635
			c0.518-0.189,0.855-0.219,0.739-0.105c-0.116,0.114,0.137,0.026,0.576-0.169c0.439-0.194,1.242-0.429,1.788-0.51
			c0.522-0.077,1.054-0.129,1.595-0.151c8.248,0.333,14.446,5.846,16.081,13.849C34.406,19.952,33.209,24.077,31.168,27.525z"/>
		<path d="M30.923,20.208c-1.391,1.473-2.741,2.9-4.058,4.292c-0.38,0.4-0.586,0.701-0.462,0.667
			c0.125-0.033,0.54-0.381,0.929-0.773c1.161-1.172,2.301-2.322,3.407-3.438c0.389-0.393,0.748-0.878,0.795-1.09
			C31.58,19.653,31.302,19.807,30.923,20.208z"/>
	</g>
</g>
<g>
</g>
<g>
</g>
<g>
</g>
<g>
</g>
<g>
</g>
<g>
</g>
<g>
</g>
<g>
</g>
<g>
</g>
<g>
</g>
<g>
</g>
<g>
</g>
<g>
</g>
<g>
</g>
<g>
</g>
</svg>
